# xmcd
# 
# Track frame offsets:
#     150
#     22455
#     38625
#     59137
#     79267
#     100162
#     120335
#     140255
#     160175
#     178212
#     196907
#     216425
#     240542
#     257580
#     280162
#     304142
# 
# Disc length: 4321
# 
# Revision: 7
# Processed by: cddbd v1.5.2PL0 Copyright (c) Steve Scherf et al.
# Submitted via: BonkEnc v1.0
# 
DISCID=e810df10
DTITLE=松田聖子 - Bible II [CD2]
DYEAR=1994
DGENRE=JPop
TTITLE0=マイアミ午前5時
TTITLE1=制服
TTITLE2=ボン・ボヤージュ
TTITLE3=時間旅行
TTITLE4=抱いて…
TTITLE5=Sweet Memories
TTITLE6=瑠璃色の地球
TTITLE7=Time For Love
TTITLE8=Baby Baby
TTITLE9=I Want You So Bad!
TTITLE10=Hot Thing
TTITLE11=Dear Mom and Dad
TTITLE12=海辺のカフェテラス
TTITLE13=Back for More
TTITLE14=わたしにできるすべてのこと
TTITLE15=It’s Style
EXTD=YEAR: 1994
EXTT0=
EXTT1=
EXTT2=
EXTT3=
EXTT4=
EXTT5=
EXTT6=
EXTT7=
EXTT8=
EXTT9=
EXTT10=
EXTT11=
EXTT12=
EXTT13=
EXTT14=
EXTT15=
PLAYORDER=
